<svg width="37" height="37" fill="none" xmlns="http://www.w3.org/2000/svg"><rect width="37" height="37" rx="18.5" fill="#35BCFE"/><mask id="a" style="mask-type:alpha" maskUnits="userSpaceOnUse" x="0" y="0" width="37" height="37"><rect width="37" height="37" rx="18.5" fill="#1C222F"/></mask><g mask="url(#a)"><path fill-rule="evenodd" clip-rule="evenodd" d="M21.325 11.75L18.872 7.5h5.762l-8.227 14.25h18.186L29.83 13.5h7.5L33 6l-3.75 6.495L25.5 6l-.018.031L22 0l-3.73 6.46L10.5-7-.325 11.75h21.65zM10.5 12l8.887 15.392L22.5 22l4.5 7.794L31.5 22l4.763 8.25h-9l4.33 7.5H13.407l5.773-10H1.407L10.5 12z" fill="#fff" fill-opacity=".4"/></g></svg>