<svg width="240" height="240" fill="none" xmlns="http://www.w3.org/2000/svg"><g filter="url(#filter0_i_3_477)"><circle cx="120" cy="120" r="120" fill="#05ACFF"/></g><path d="M79.118 81.653h40.884V66H79.118v15.653zm-1.493.615a4.34 4.34 0 012.004-.636l-1.028-15.616a20.033 20.033 0 00-9.172 2.916l8.196 13.336zm-1.424 1.45c.34-.578.824-1.08 1.424-1.45L69.43 68.932a19.856 19.856 0 00-6.741 6.887l13.513 7.9zm-.543 1.874a3.95 3.95 0 01.543-1.873l-13.513-7.9a19.64 19.64 0 00-2.677 9.262l15.647.51zm.418 1.904a3.98 3.98 0 01-.418-1.904l-15.647-.511a19.589 19.589 0 002.066 9.417l13.999-7.002zm50.683 86.732l-50.928-87.18-13.514 7.894 50.929 87.18 13.513-7.894zM112.176 73.826v104.351h15.653V73.827h-15.653zm-33.058 0V66c-.172 0-.345.005-.517.016l.517 7.81zM69.074 90.997l-6.997 3.501c.078.152.157.298.24.444l6.757-3.945zm50.928 87.18l-6.756 3.945a7.824 7.824 0 008.802 3.605 7.822 7.822 0 005.781-7.55h-7.827zm0-104.35h7.827A7.83 7.83 0 00120.002 66v7.826z" fill="#fff"/><path d="M112.178 73.826v104.351h15.653V73.827h-15.653zM160.889 66h-40.885v15.653h40.885V66zm9.689 2.932a20.029 20.029 0 00-9.172-2.916l-1.033 15.616c.72.047 1.408.271 2.009.636l8.196-13.336zm6.741 6.887a19.848 19.848 0 00-6.741-6.887l-8.196 13.336a4.213 4.213 0 011.424 1.45l13.513-7.899zm2.677 9.262a19.665 19.665 0 00-2.677-9.262l-13.513 7.9a3.95 3.95 0 01.543 1.873l15.647-.511zm-2.066 9.417a19.555 19.555 0 002.066-9.417l-15.647.51c.02.653-.12 1.305-.418 1.905l13.999 7.002zm-51.169 87.624l50.929-87.18-13.519-7.894-50.923 87.18 13.513 7.894zm-6.757-108.296V66a7.829 7.829 0 00-7.826 7.826h7.826zm40.885 0l.517-7.81a8.5 8.5 0 00-.517-.016v7.826zm10.039 17.171l6.762 3.945c.083-.146.162-.292.24-.444l-7.002-3.5zm-50.924 87.18h-7.826a7.822 7.822 0 005.781 7.55 7.825 7.825 0 008.802-3.605l-6.757-3.945z" fill="#fff"/><defs><filter id="filter0_i_3_477" x="0" y="0" width="240" height="244" filterUnits="userSpaceOnUse" color-interpolation-filters="sRGB"><feFlood flood-opacity="0" result="BackgroundImageFix"/><feBlend in="SourceGraphic" in2="BackgroundImageFix" result="shape"/><feColorMatrix in="SourceAlpha" values="0 0 0 0 0 0 0 0 0 0 0 0 0 0 0 0 0 0 127 0" result="hardAlpha"/><feOffset dy="4"/><feGaussianBlur stdDeviation="50"/><feComposite in2="hardAlpha" operator="arithmetic" k2="-1" k3="1"/><feColorMatrix values="0 0 0 0 0.283333 0 0 0 0 0.484 0 0 0 0 1 0 0 0 0.3 0"/><feBlend in2="shape" result="effect1_innerShadow_3_477"/></filter></defs></svg>