<svg width="56" height="56" fill="none" xmlns="http://www.w3.org/2000/svg"><g filter="url(#filter0_i_1_2954)"><circle cx="28" cy="28" r="28" fill="#05ACFF"/></g><path d="M18.46 17.652H28V14h-9.54v3.652zm-.347.144c.14-.087.3-.138.467-.149l-.24-3.643a4.674 4.674 0 00-2.14.68l1.913 3.112zm-.333.338a.983.983 0 01.333-.338L16.2 14.684a4.633 4.633 0 00-1.573 1.607l3.153 1.843zm-.126.438a.922.922 0 01.126-.438l-3.153-1.843a4.582 4.582 0 00-.624 2.161l3.65.12zm.097.444a.93.93 0 01-.097-.444l-3.651-.12a4.57 4.57 0 00.482 2.198l3.266-1.634zm11.826 20.237L17.694 18.911l-3.153 1.842 11.883 20.342 3.153-1.842zm-3.403-23.427v24.349h3.653V15.826h-3.653zm-7.713 0V14c-.04 0-.08.001-.12.004l.12 1.822zm-2.344 4.007l-1.632.817c.018.035.036.069.056.103l1.576-.92zm11.884 20.342l-1.577.92a1.826 1.826 0 003.403-.92H28zm0-24.349h1.826A1.827 1.827 0 0028 14v1.826z" fill="#fff"/><path d="M26.175 15.826v24.349h3.652V15.826h-3.652zM37.54 14H28v3.652h9.54V14zm2.26.684a4.674 4.674 0 00-2.14-.68l-.24 3.643c.167.011.328.064.468.149l1.913-3.112zm1.573 1.607a4.634 4.634 0 00-1.572-1.607l-1.913 3.112a.982.982 0 01.332.338l3.154-1.843zM42 18.452a4.587 4.587 0 00-.625-2.16l-3.153 1.842c.08.136.122.285.127.438l3.651-.12zm-.482 2.198A4.57 4.57 0 0042 18.452l-3.651.12a.933.933 0 01-.097.444l3.266 1.634zm-11.94 20.445l11.884-20.342-3.154-1.842-11.883 20.342 3.154 1.842zm-1.576-25.269V14a1.827 1.827 0 00-1.826 1.826H28zm9.54 0l.12-1.822a1.94 1.94 0 00-.12-.004v1.826zm2.342 4.007l1.578.92a2.05 2.05 0 00.056-.103l-1.634-.817zM28.001 40.175h-1.826a1.825 1.825 0 003.403.92L28 40.175z" fill="#fff"/><defs><filter id="filter0_i_1_2954" x="0" y="0" width="56" height="60" filterUnits="userSpaceOnUse" color-interpolation-filters="sRGB"><feFlood flood-opacity="0" result="BackgroundImageFix"/><feBlend in="SourceGraphic" in2="BackgroundImageFix" result="shape"/><feColorMatrix in="SourceAlpha" values="0 0 0 0 0 0 0 0 0 0 0 0 0 0 0 0 0 0 127 0" result="hardAlpha"/><feOffset dy="4"/><feGaussianBlur stdDeviation="50"/><feComposite in2="hardAlpha" operator="arithmetic" k2="-1" k3="1"/><feColorMatrix values="0 0 0 0 0.283333 0 0 0 0 0.484 0 0 0 0 1 0 0 0 0.3 0"/><feBlend in2="shape" result="effect1_innerShadow_1_2954"/></filter></defs></svg>