<svg width="48" height="48" fill="none" xmlns="http://www.w3.org/2000/svg"><rect width="48" height="48" rx="24" fill="#05ACFF"/><mask id="a" style="mask-type:alpha" maskUnits="userSpaceOnUse" x="0" y="0" width="48" height="48"><rect width="48" height="48" rx="24" fill="#487BFF"/></mask><g mask="url(#a)" fill="#F7F9FB"><path opacity=".2" d="M30.606 5.402c.983-1.605 3.44-.407 2.78 1.356-.562 1.503 1.245 2.769 2.465 1.726 1.43-1.223 3.397.676 2.225 2.149-1 1.255.328 3.017 1.81 2.403 1.74-.721 3.023 1.693 1.453 2.73-1.338.886-.62 2.972.98 2.846 1.876-.149 2.35 2.544.537 3.046-1.547.428-1.508 2.634.052 3.008 1.83.439 1.45 3.146-.43 3.063-1.603-.07-2.248 2.04-.88 2.878 1.605.983.407 3.44-1.356 2.78-1.503-.563-2.768 1.245-1.726 2.464 1.223 1.431-.676 3.398-2.148 2.225-1.256-.999-3.018.329-2.403 1.811.72 1.739-1.693 3.022-2.732 1.452-.885-1.338-2.97-.62-2.844.98.148 1.876-2.544 2.35-3.046.537-.429-1.547-2.635-1.508-3.009.052-.439 1.83-3.146 1.45-3.063-.43.07-1.603-2.04-2.248-2.877-.88-.983 1.605-3.44.407-2.78-1.356.562-1.503-1.245-2.768-2.465-1.725-1.43 1.222-3.397-.677-2.225-2.15 1-1.255-.328-3.017-1.81-2.402-1.74.72-3.023-1.693-1.453-2.731 1.339-.885.62-2.972-.98-2.845-1.876.148-2.35-2.544-.536-3.046 1.546-.428 1.507-2.634-.053-3.009-1.83-.438-1.45-3.145.43-3.063 1.604.07 2.249-2.039.88-2.877-1.605-.983-.407-3.44 1.356-2.78 1.503.562 2.768-1.245 1.726-2.465-1.223-1.43.676-3.397 2.149-2.225 1.255 1 3.017-.328 2.403-1.81-.721-1.74 1.692-3.023 2.73-1.453.886 1.339 2.972.62 2.845-.98-.148-1.876 2.544-2.35 3.047-.536.428 1.546 2.634 1.508 3.008-.053.439-1.83 3.146-1.45 3.063.43-.07 1.604 2.04 2.249 2.877.88z"/><path opacity=".2" d="M34.86 14.405c1.328-.795 2.676.994 1.545 2.05-.946.886-.146 2.457 1.127 2.212 1.52-.294 2.175 1.848.75 2.455-1.192.508-.977 2.259.303 2.463 1.528.244 1.411 2.481-.135 2.564-1.294.07-1.69 1.788-.558 2.418 1.353.752.478 2.814-1.003 2.363-1.24-.377-2.2 1.102-1.352 2.081 1.015 1.17-.513 2.808-1.75 1.878-1.036-.779-2.445.283-1.982 1.493.553 1.446-1.443 2.463-2.288 1.166-.707-1.086-2.394-.57-2.373.725.025 1.548-2.198 1.821-2.548.313-.293-1.262-2.055-1.354-2.478-.13-.506 1.463-2.689.96-2.502-.577.156-1.286-1.467-1.976-2.284-.97-.976 1.202-2.855-.018-2.153-1.398.586-1.155-.704-2.358-1.815-1.692-1.328.795-2.676-.994-1.545-2.051.946-.885.145-2.457-1.127-2.21-1.52.293-2.175-1.85-.75-2.456 1.192-.508.977-2.259-.303-2.463-1.528-.244-1.411-2.481.135-2.564 1.293-.07 1.69-1.788.558-2.418-1.353-.752-.478-2.814 1.003-2.363 1.24.377 2.2-1.102 1.351-2.081-1.014-1.17.514-2.808 1.752-1.878 1.035.778 2.444-.283 1.981-1.493-.553-1.446 1.443-2.463 2.288-1.166.707 1.086 2.394.57 2.373-.725-.025-1.548 2.198-1.821 2.548-.313.293 1.262 2.055 1.354 2.478.13.506-1.464 2.689-.96 2.502.577-.157 1.286 1.467 1.975 2.284.97.975-1.202 2.854.018 2.153 1.398-.587 1.155.703 2.358 1.815 1.692z"/></g><g clip-path="url(#clip0_1_502)"><path d="M22.833 26.333v9.334h-4.666a3.5 3.5 0 01-3.5-3.5V27.5a1.167 1.167 0 011.166-1.167h7zm9.334 0a1.167 1.167 0 011.166 1.167v4.667a3.5 3.5 0 01-3.5 3.5h-4.666v-9.334h7zm-2.917-14a4.085 4.085 0 013.69 5.834h.393a2.333 2.333 0 012.334 2.333v1.167A2.333 2.333 0 0133.333 24h-8.166v-5.833h-2.334V24h-8.166a2.333 2.333 0 01-2.334-2.333V20.5a2.333 2.333 0 012.334-2.333h.393a4.067 4.067 0 01-.393-1.75c0-2.256 1.828-4.084 4.063-4.084 2.048-.035 3.864 1.274 5.111 3.423l.159.284c1.205-2.233 2.987-3.633 5.006-3.704l.244-.003zm-10.5 2.334a1.75 1.75 0 100 3.5h3.667c-.865-2.223-2.274-3.524-3.667-3.5zm10.48 0c-1.377-.024-2.782 1.278-3.647 3.5h3.667a1.75 1.75 0 00-.02-3.5z" fill="#F7F9FB"/></g><defs><clipPath id="clip0_1_502"><rect x="10" y="10" width="28" height="28" rx="14" fill="#fff"/></clipPath></defs></svg>