<svg width="24" height="24" fill="none" xmlns="http://www.w3.org/2000/svg"><g clip-path="url(#clip0_49_568)"><path d="M7.137 7.765h2.04c.376 0 .687.296.705.672l.706 14.824a.706.706 0 01-1.41.067L8.502 9.176H5.647a.706.706 0 01-.546-1.152L11.454.259a.706.706 0 011.092 0L18.9 8.024a.706.706 0 01-.546 1.152h-2.856l-.674 14.152a.706.706 0 01-1.41-.067l.705-14.824a.706.706 0 01.706-.672h2.04L12 1.82 7.137 7.765zM18.352 23.34a.706.706 0 01-1.41-.091l.707-10.941a.706.706 0 111.408.09l-.705 10.942zm-11.295-.091a.706.706 0 01-1.408.09L4.943 12.4a.706.706 0 111.409-.091l.705 10.94z" fill="#05ACFF"/></g><defs><clipPath id="clip0_49_568"><path fill="#fff" d="M0 0h24v24H0z"/></clipPath></defs></svg>