<svg width="24" height="24" fill="none" xmlns="http://www.w3.org/2000/svg"><g clip-path="url(#clip0_49_566)"><path d="M4.125 15.75c-1.677 0-3.375.515-3.375 1.5v4.5c0 .985 1.698 1.5 3.375 1.5s3.375-.515 3.375-1.5v-4.5c0-.985-1.698-1.5-3.375-1.5zm0 6.75c-1.705 0-2.625-.532-2.625-.75v-1.275A5.948 5.948 0 004.125 21a5.948 5.948 0 002.625-.525v1.275c0 .218-.92.75-2.625.75zm0-2.25c-1.705 0-2.625-.532-2.625-.75v-1.275a5.948 5.948 0 002.625.525 5.948 5.948 0 002.625-.525V19.5c0 .218-.92.75-2.625.75zm0-2.25C2.42 18 1.5 17.468 1.5 17.25c0-.218.92-.75 2.625-.75s2.625.532 2.625.75c0 .218-.92.75-2.625.75zM12 13.5c-1.677 0-3.375.515-3.375 1.5v6.75c0 .985 1.698 1.5 3.375 1.5s3.375-.515 3.375-1.5V15c0-.985-1.698-1.5-3.375-1.5zm0 9c-1.705 0-2.625-.532-2.625-.75v-1.275A5.948 5.948 0 0012 21a5.948 5.948 0 002.625-.525v1.275c0 .218-.92.75-2.625.75zm0-2.25c-1.705 0-2.625-.532-2.625-.75v-1.275A5.948 5.948 0 0012 18.75a5.948 5.948 0 002.625-.525V19.5c0 .218-.92.75-2.625.75zM12 18c-1.705 0-2.625-.532-2.625-.75v-1.275A5.948 5.948 0 0012 16.5a5.948 5.948 0 002.625-.525v1.275c0 .218-.92.75-2.625.75zm0-2.25c-1.705 0-2.625-.533-2.625-.75 0-.217.92-.75 2.625-.75s2.625.533 2.625.75c0 .217-.92.75-2.625.75zm7.875-4.5c-1.677 0-3.375.515-3.375 1.5v9c0 .985 1.698 1.5 3.375 1.5s3.375-.515 3.375-1.5v-9c0-.985-1.698-1.5-3.375-1.5zm0 .75c1.705 0 2.625.533 2.625.75 0 .217-.92.75-2.625.75s-2.625-.533-2.625-.75c0-.217.92-.75 2.625-.75zm0 10.5c-1.705 0-2.625-.532-2.625-.75v-1.275a5.948 5.948 0 002.625.525 5.948 5.948 0 002.625-.525v1.275c0 .218-.92.75-2.625.75zm0-2.25c-1.705 0-2.625-.532-2.625-.75v-1.275a5.948 5.948 0 002.625.525 5.948 5.948 0 002.625-.525V19.5c0 .218-.92.75-2.625.75zm0-2.25c-1.705 0-2.625-.532-2.625-.75v-1.275a5.948 5.948 0 002.625.525 5.948 5.948 0 002.625-.525v1.275c0 .218-.92.75-2.625.75zm0-2.25c-1.705 0-2.625-.533-2.625-.75v-1.275a5.948 5.948 0 002.625.525 5.948 5.948 0 002.625-.525V15c0 .217-.92.75-2.625.75zm-17.89-3.485a.375.375 0 010-.53l6.44-6.44a1.875 1.875 0 012.65 0L13.5 7.72 18.22 3h-1.345a.75.75 0 01-.75-.75V1.5a.75.75 0 01.75-.75H21a1.126 1.126 0 011.125 1.125V6a.75.75 0 01-.75.75h-.75a.75.75 0 01-.75-.75V4.655l-5.05 5.05a1.875 1.875 0 01-2.65 0L9.75 7.28l-6.11 6.11a.375.375 0 01-.53-.53l6.375-6.375a.375.375 0 01.53 0l2.69 2.689a1.153 1.153 0 001.59 0l5.69-5.69a.375.375 0 01.64.266V6h.75V1.875A.375.375 0 0021 1.5h-4.125v.75h2.25a.375.375 0 01.265.64l-5.625 5.625a.375.375 0 01-.53 0l-2.69-2.689a1.153 1.153 0 00-1.59 0l-6.44 6.44a.375.375 0 01-.53 0z" fill="#05ACFF"/></g><defs><clipPath id="clip0_49_566"><path fill="#fff" d="M0 0h24v24H0z"/></clipPath></defs></svg>