<svg width="24" height="24" fill="none" xmlns="http://www.w3.org/2000/svg"><g clip-path="url(#clip0_49_569)" fill="#05ACFF"><path d="M23.25 6.188h-4.916a3.546 3.546 0 00.979-2.438A3.567 3.567 0 0015.75.187c-1.638 0-3.018 1.34-3.75 3.337C11.268 1.526 9.888.186 8.25.186A3.567 3.567 0 004.687 3.75c0 .945.375 1.8.978 2.438H.75a.562.562 0 00-.563.562v4.5c0 .31.253.563.563.563h.938v9.937c0 1.137.925 2.063 2.062 2.063h16.5a2.065 2.065 0 002.063-2.063v-9.938h.937a.562.562 0 00.563-.562v-4.5a.563.563 0 00-.563-.563zm-7.5-4.875a2.44 2.44 0 012.438 2.437 2.44 2.44 0 01-2.438 2.438h-3.153c.173-2.691 1.537-4.875 3.153-4.875zM5.812 3.75A2.44 2.44 0 018.25 1.312c1.616 0 2.98 2.184 3.153 4.875H8.25A2.44 2.44 0 015.812 3.75zm15.375 18c0 .517-.42.938-.937.938H3.75a.94.94 0 01-.938-.938v-9.938H5.25a.563.563 0 000-1.124H1.312V7.312h21.375v3.375H18.75a.562.562 0 100 1.126h2.438v9.937z"/><path d="M16.812 13.005l-2.976-.432-1.332-2.697c-.187-.384-.82-.384-1.008 0l-1.332 2.697-2.976.433a.56.56 0 00-.312.96l2.154 2.099-.507 2.965a.56.56 0 00.816.593l2.661-1.4 2.661 1.4a.565.565 0 00.816-.593l-.507-2.965 2.154-2.1a.56.56 0 00-.312-.96zm-2.84 2.46a.558.558 0 00-.16.5l.365 2.13-1.914-1.004a.564.564 0 00-.525 0l-1.914 1.005.364-2.132a.559.559 0 00-.16-.498l-1.553-1.51 2.142-.312a.562.562 0 00.423-.308l.96-1.94.959 1.94c.08.167.24.282.423.308l2.142.312-1.551 1.509z"/></g><defs><clipPath id="clip0_49_569"><path fill="#fff" d="M0 0h24v24H0z"/></clipPath></defs></svg>