<svg width="24" height="24" fill="none" xmlns="http://www.w3.org/2000/svg"><g clip-path="url(#clip0_49_563)" fill="#05ACFF"><path d="M23.707.298c-1.312-1.312-9.438 1.875-13.24 5.672-.138.137-.27.276-.402.416C7.688 6 6.75 6.292 3.69 9.356c-.662.662-1.519 1.721-1.937 2.71a.375.375 0 00.31.52l3.999.338a7.438 7.438 0 00-.26 1.513.375.375 0 00.108.29l1.423 1.422-.652.653a.375.375 0 00.53.53l.653-.652 1.423 1.42c.07.07.165.11.264.11h.023a7.434 7.434 0 001.51-.264l.337 3.99a.375.375 0 00.519.313c.988-.418 2.048-1.274 2.71-1.936 3.065-3.064 3.35-4.002 2.975-6.372.139-.13.28-.264.416-.4 1.802-1.803 3.54-4.589 4.77-7.645.094-.23.293-.75.503-1.37a.36.36 0 00.073-.224c.467-1.457.932-3.394.32-4.005zM2.677 11.886a9.75 9.75 0 011.544-1.997c2.716-2.723 3.572-3.053 5.236-2.837C8 8.728 6.902 10.528 6.303 12.187l-3.624-.301zm8.104.81c-1.447-1.446-2.25-2.144-2.719-2.462.206-.345.429-.691.67-1.037.409.305 1.425 1.204 2.891 2.657l-.842.841zm1.37-.312c1.456 1.466 2.352 2.483 2.662 2.891-.348.24-.695.461-1.041.662-.319-.468-1.024-1.27-2.462-2.718l.842-.835zm-4.287 3.229l-1.301-1.3c.095-1.038.493-2.214 1.125-3.425a32.095 32.095 0 012.563 2.338l-2.387 2.387zm1.83 1.824l-1.302-1.293 2.39-2.387a32.37 32.37 0 012.343 2.555c-1.217.638-2.393 1.035-3.431 1.125zm4.425 2.344a9.753 9.753 0 01-1.997 1.543l-.31-3.62c1.664-.599 3.462-1.688 5.138-3.154.22 1.665-.109 2.512-2.831 5.237v-.006zM22.09 5.66c-1.192 2.947-2.863 5.625-4.584 7.346a20.421 20.421 0 01-2.095 1.834c-.35-.503-1.125-1.377-2.728-2.984l1.29-1.29a.375.375 0 00-.53-.53l-1.29 1.29c-1.609-1.6-2.483-2.38-2.985-2.73A20.411 20.411 0 0110.997 6.5c1.744-1.744 4.432-3.428 7.378-4.626a22.96 22.96 0 011.296-.482.375.375 0 00.078 0c.188.086.75.469 1.574 1.292.823.823 1.201 1.376 1.29 1.57a24.68 24.68 0 01-.522 1.41v-.006zm.81-2.35c-.323-.41-.672-.8-1.046-1.164-.37-.381-.767-.736-1.187-1.063 1.5-.413 2.363-.411 2.51-.263.149.148.128 1.028-.277 2.496V3.31zM6.043 17.957a.375.375 0 00-.53 0L.11 23.36a.375.375 0 00.53.531l5.402-5.404a.375.375 0 000-.53z"/><path d="M1.723 18.506c.1 0 .194-.04.264-.11l3.038-3.038a.375.375 0 00-.525-.53l-3.041 3.039a.375.375 0 00.264.64zm6.919.467l-3.038 3.038a.375.375 0 10.53.53L9.173 19.5a.375.375 0 00-.53-.53v.003zM.98 21.32c.099 0 .194-.04.264-.11l3.037-3.038a.376.376 0 10-.532-.531L.712 20.677a.375.375 0 00.265.64l.004.002zm5.379-1.603a.375.375 0 00-.53 0l-3.038 3.037a.375.375 0 10.53.53L6.36 20.25a.375.375 0 000-.534zM16.515 4.839a2.653 2.653 0 100 5.307 2.653 2.653 0 000-5.307zm0 4.555a1.903 1.903 0 110-3.805 1.903 1.903 0 010 3.805z"/></g><defs><clipPath id="clip0_49_563"><path fill="#fff" d="M0 0h24v24H0z"/></clipPath></defs></svg>