<svg width="24" height="24" fill="none" xmlns="http://www.w3.org/2000/svg"><path d="M20.066 16.27c.027-.053.058-.101.082-.154 1.152-2.525-1.538-6.307-2.56-7.605a1.277 1.277 0 00-.116-2.338c.363-.42.562-.959.56-1.514a1.288 1.288 0 00-.553-1.059c-.437-.28-.902-.02-1.24.173a2.236 2.236 0 01-.24.122 1.785 1.785 0 01-.022-.321 1.44 1.44 0 00-.756-1.356 1.63 1.63 0 00-1.608.081.804.804 0 00-.367.776c.026.199.11.803-.135 1.036-.192.185-.595.154-.9.099-.48-.091-.816 0-.986.288-.264.434.067 1.13.437 1.68a1.28 1.28 0 00-.092 2.328c-.062.079-.132.168-.206.268a4.303 4.303 0 10-2.56 6.685c.044.224.114.443.208.652.04.084.084.168.132.24a7.829 7.829 0 00-.926.641v-.187a.737.737 0 00-.725-.725H5.489a.737.737 0 00-.735.737v4.409a.737.737 0 00.735.734h2.004a.734.734 0 00.734-.734v-.063h2.415c.804.17 2.512.514 3.235.514.08.002.16-.004.24-.02.117-.026.48-.107 5.978-3.48a1.119 1.119 0 00.37-1.533 1.068 1.068 0 00-.399-.374zM7.507 21.226a.014.014 0 01-.014.014l-2.019-.014.015-4.426 2.018.017v4.409zm4.58-16.32c.686.127 1.2.03 1.53-.286.459-.437.42-1.154.351-1.656 0-.034.058-.08.07-.089a.936.936 0 01.861-.03.737.737 0 01.367.72c0 .364.041.805.363.995.321.19.665 0 .96-.17.149-.084.425-.24.499-.192a.58.58 0 01.22.48 1.822 1.822 0 01-.748 1.406h-4.08c-.346-.48-.62-.984-.631-1.2a.76.76 0 01.237.029v-.007zm.071 1.89h4.853a.566.566 0 010 1.131h-4.853a.566.566 0 010-1.13zm.015 4.484a4.307 4.307 0 00-.413-1.821c.271-.373.497-.653.622-.804h4.396c.624.758 3.795 4.8 2.715 7.161a2.227 2.227 0 01-.18.31 1.18 1.18 0 00-.317.098l-2.527 1.265a1.248 1.248 0 00-1.327-1.205l-1.92.13a3.214 3.214 0 00-2.11-.684 3.377 3.377 0 00-1.315.307 2.143 2.143 0 01-.29-.79 4.32 4.32 0 002.666-3.967zm-4.306 3.571a3.586 3.586 0 113.586-3.57 3.6 3.6 0 01-3.586 3.57zm11.84 2.712c-3.214 1.968-5.48 3.3-5.76 3.394-.272.048-1.868-.223-3.195-.506a.37.37 0 00-.074 0h-2.45v-2.614a.356.356 0 00.24-.096c.014 0 1.425-1.291 2.64-1.291 1.168 0 1.68.55 1.708.57a.36.36 0 00.295.12l2.076-.138a.525.525 0 01.298.979h-.02a.48.48 0 01-.115.043l-2.532.648a.36.36 0 10.176.698l2.536-.638c.106-.026.208-.066.303-.12l3.485-1.745a.403.403 0 01.574.297.395.395 0 01-.186.4z" fill="#05ACFF"/><path d="M13.56 13.75a.36.36 0 10-.72 0 1.616 1.616 0 001.385 1.521v.272a.36.36 0 00.72 0v-.272a1.616 1.616 0 001.375-1.521 1.612 1.612 0 00-1.375-1.51v-1.66a.862.862 0 01.655.777.36.36 0 00.72 0 1.615 1.615 0 00-1.375-1.517v-.276a.36.36 0 10-.72 0v.276a1.615 1.615 0 00-1.385 1.522 1.615 1.615 0 001.385 1.524v1.649a.864.864 0 01-.665-.785zm1.385-.79a.79.79 0 010 1.56v-1.56zm-1.385-1.603a.862.862 0 01.665-.778v1.558a.862.862 0 01-.665-.78zM7.867 9.646a.631.631 0 01.631.631.36.36 0 00.72 0 1.351 1.351 0 00-.99-1.3V8.79a.36.36 0 10-.72 0v.185a1.349 1.349 0 000 2.602v.05l.04-.04c.104.025.212.039.32.04a.632.632 0 11-.632.629.36.36 0 00-.72 0 1.354 1.354 0 00.991 1.3v.186a.36.36 0 00.72 0v-.185a1.35 1.35 0 000-2.602v-.048l-.04.039a1.384 1.384 0 00-.32-.039.631.631 0 110-1.262z" fill="#05ACFF"/></svg>