<svg width="24" height="24" fill="none" xmlns="http://www.w3.org/2000/svg"><path fill-rule="evenodd" clip-rule="evenodd" d="M1.719 16.42a1.5 1.5 0 01-.19-.723c0-.52.284-1.015.8-1.406.666-.504 1.74-.843 2.951-.843a5.75 5.75 0 012.1.377l.049-.41c.27-2.254 1.539-4.254 3.42-5.346.334-1.786.014-3.718-1.459-5.997a.375.375 0 01.275-.577c1.83-.2 3.27.292 4.24 1.183a4.354 4.354 0 011.254 2.077c.192-1.02-.111-1.855-.54-2.722a.375.375 0 01.316-.54c1.67-.1 3.103.218 3.96.617.425.198.72.427.868.633a.368.368 0 01.068.18c.223 2.214-.273 3.718-1.366 5.233a6.93 6.93 0 012.605 2.933c1.218 2.544 1.566 5.296 1.31 8.191a3.386 3.386 0 01-.882 2.031 3.547 3.547 0 01-2.62 1.145h-8.586a3.564 3.564 0 01-2.2-.755c-.67.45-1.68.744-2.812.744-1.212 0-2.285-.339-2.951-.843-.516-.391-.8-.886-.8-1.406 0-.173.03-.341.09-.503l.1-.274a1.497 1.497 0 01-.19-.722c0-.173.03-.341.09-.504l.1-.273a1.497 1.497 0 01-.19-.723c0-.173.03-.34.09-.503l.1-.273zm5.568-1.822c-.54-.253-1.243-.4-2.007-.4-1.024 0-1.935.265-2.497.691-.305.23-.504.503-.504.808 0 .307.2.579.504.808.562.426 1.473.692 2.497.692.64 0 1.236-.104 1.73-.286a2.93 2.93 0 00.768-.406l.04-.031c.281-.224.463-.484.463-.777 0-.229-.111-.438-.294-.626a1.922 1.922 0 00-.209-.182 2.71 2.71 0 00-.49-.291zm-.374 3.13a6.022 6.022 0 01-1.633.219c-1.212 0-2.285-.34-2.951-.844l-.04-.03a.742.742 0 00-.01.124c0 .307.2.578.504.808.562.426 1.473.692 2.497.692.561 0 1.088-.08 1.544-.222.28-.085.549-.207.798-.363a2.25 2.25 0 00.156-.107c.304-.23.503-.502.503-.808a.66.66 0 00-.011-.124l-.038.03a3.42 3.42 0 01-.528.322 4.579 4.579 0 01-.791.303zm4.716-9.761c2.023.858 4.047.831 6.071-.069l.033-.012c1.047-1.398 1.542-2.76 1.362-4.775-.16-.163-.466-.32-.87-.465-.677-.246-1.615-.423-2.689-.42.542 1.256.73 2.522-.252 4.29a.375.375 0 01-.703-.197c.055-1.227-.36-2.333-1.183-3.089-.724-.663-1.759-1.05-3.046-1.028 1.26 2.155 1.547 4.028 1.277 5.765zM8.66 21.189a2.82 2.82 0 001.632.517h8.586a2.8 2.8 0 002.067-.9 2.634 2.634 0 00.687-1.585l.001-.005c.243-2.758-.08-5.38-1.24-7.804-.555-1.163-1.438-2.137-2.557-2.755-2.168.915-4.335.919-6.501 0-1.744.962-2.914 2.788-3.16 4.847l-.083.688c.048.033.094.066.14.1.515.39.8.884.8 1.405a1.5 1.5 0 01-.191.724l.1.273c.06.162.09.33.09.503a1.5 1.5 0 01-.19.723l.1.273c.06.162.09.331.09.504 0 .25-.065.493-.19.722l.1.274c.06.162.09.33.09.502 0 .352-.128.691-.37.994zm-6.37-1.117a.722.722 0 00-.011.124c0 .307.2.577.504.808.562.426 1.473.692 2.497.692.891 0 1.697-.202 2.263-.536.084-.048.162-.1.235-.156.135-.102.25-.213.336-.33a.821.821 0 00.167-.478.645.645 0 00-.011-.124l-.038.03a3.32 3.32 0 01-.352.23 4.22 4.22 0 01-.688.307 5.871 5.871 0 01-1.912.307c-1.212 0-2.285-.339-2.951-.844a1.141 1.141 0 00-.04-.03zm0-1.5a.732.732 0 00-.011.125c0 .306.2.577.504.808.562.425 1.473.691 2.497.691.597 0 1.155-.09 1.628-.25.26-.087.492-.195.693-.32a2.37 2.37 0 00.177-.122c.304-.23.503-.501.503-.807a.654.654 0 00-.011-.124l-.038.03c-.2.15-.436.287-.7.403-.24.105-.489.19-.743.255-.493.125-1 .188-1.509.186-1.212 0-2.285-.34-2.951-.845l-.04-.03zm12.368-7.726a4.868 4.868 0 014.867 4.863 4.867 4.867 0 01-9.733 0 4.867 4.867 0 014.866-4.863zm0 5.237c.548 0 1.015.362 1.015.84 0 .48-.467.84-1.015.84-.547 0-1.014-.36-1.014-.84a.375.375 0 10-.75 0c0 .75.587 1.399 1.389 1.555v.355a.376.376 0 00.75 0v-.355c.803-.156 1.39-.804 1.39-1.555 0-.862-.778-1.59-1.765-1.59-.547 0-1.014-.361-1.014-.84s.467-.84 1.014-.84c.547 0 1.015.361 1.015.84a.375.375 0 10.75 0c0-.75-.588-1.398-1.39-1.554v-.356a.376.376 0 00-.75 0v.356c-.802.156-1.39.804-1.39 1.554 0 .862.779 1.59 1.765 1.59zM4.905 4.189l-.813 1.219a.375.375 0 11-.625-.416l1.5-2.25a.377.377 0 01.625 0l1.5 2.25a.375.375 0 01-.624.416l-.813-1.22v7.76a.375.375 0 01-.75 0v-7.76z" fill="#05ACFF"/></svg>