<svg width="24" height="24" fill="none" xmlns="http://www.w3.org/2000/svg"><g clip-path="url(#clip0_49_565)"><mask id="a" style="mask-type:luminance" maskUnits="userSpaceOnUse" x="0" y="0" width="24" height="24"><path d="M0 0h24v24H0V0z" fill="#fff"/></mask><g mask="url(#a)" stroke="#05ACFF" stroke-miterlimit="10"><path d="M20.409 12.703a8.482 8.482 0 01-.755 2.835m-.734 1.275a8.492 8.492 0 01-2.066 2.079m-1.271.74a8.47 8.47 0 01-2.83.77m-1.473-.001a8.543 8.543 0 01-2.832-.755m-1.276-.732a8.203 8.203 0 01-2.076-2.072m-.734-1.275a8.55 8.55 0 01-.762-2.83m0-1.473c.09-.978.346-1.94.762-2.83m.734-1.276a8.203 8.203 0 012.076-2.072m1.276-.732a8.545 8.545 0 012.833-.755m1.472 0c.979.09 1.941.35 2.83.769m1.271.74a8.492 8.492 0 012.067 2.079m.733 1.276c.414.89.67 1.854.755 2.834m-3.487 3.516h-3.226l2.288-3.442a1.406 1.406 0 10-2.578-.778v.616M6.375 9.89l4.219 4.22m0-4.22l-4.219 4.22"/><path d="M23.297 12c0 6.213-5.084 11.297-11.297 11.297C5.787 23.297.703 18.213.703 12 .703 5.787 5.787.703 12 .703 18.213.703 23.297 5.787 23.297 12z"/></g></g><defs><clipPath id="clip0_49_565"><path fill="#fff" d="M0 0h24v24H0z"/></clipPath></defs></svg>