<svg width="24" height="24" fill="none" xmlns="http://www.w3.org/2000/svg"><g clip-path="url(#clip0_49_567)" fill="#05ACFF"><path d="M16.286 18.878a5.092 5.092 0 01-.289-.05c-.037-.007-.075-.01-.112-.018-.06-.011-.109-.026-.165-.041-.06-.015-.128-.03-.18-.049a.183.183 0 01-.041-.015c-.267-.086-.439-.184-.51-.259-.023-.026-.038-.052-.038-.075a.186.186 0 00-.187-.187.186.186 0 00-.188.187.41.41 0 00.019.117c.157.562 1.447.82 2.651.82 1.204 0 2.498-.258 2.652-.82a.395.395 0 00.018-.117.186.186 0 00-.187-.187.186.186 0 00-.188.187c0 .023-.015.049-.037.075-.072.079-.244.173-.51.259a.186.186 0 00-.041.015c-.053.015-.12.03-.18.049l-.165.041c-.034.008-.076.011-.113.019a5.073 5.073 0 01-.289.049.804.804 0 00-.09.007 7.426 7.426 0 01-.874.049c-.183 0-.352-.008-.513-.015-.128-.008-.244-.023-.36-.034a.719.719 0 01-.09-.008h.007zM6.75 16.312c1.204 0 2.498-.258 2.651-.82a.397.397 0 00.019-.117.186.186 0 00-.187-.188.186.186 0 00-.188.188c0 .023-.015.049-.037.075-.072.079-.244.173-.51.259a.186.186 0 00-.042.015c-.052.015-.12.03-.18.049l-.165.04c-.033.008-.075.012-.112.02a5.085 5.085 0 01-.289.048.805.805 0 00-.09.008 7.424 7.424 0 01-.874.049c-.183 0-.352-.008-.513-.016-.128-.007-.244-.022-.36-.033a.719.719 0 01-.09-.008 5.085 5.085 0 01-.29-.049c-.037-.007-.074-.01-.112-.018-.06-.011-.108-.027-.165-.041-.06-.015-.127-.03-.18-.05a.184.184 0 01-.041-.014c-.266-.086-.439-.184-.51-.259-.022-.026-.037-.052-.037-.075a.186.186 0 00-.188-.188.186.186 0 00-.187.188c0 .041.007.079.018.116.158.563 1.448.822 2.652.822h.007z"/><path d="M23.25 16.875h-2.906c-.705-.435-1.718-.713-2.873-.743v-.285c.252.045.581.087.949.087.611 0 1.316-.117 1.901-.525 1.324-.927 1.444-2.937 1.451-3.023a.376.376 0 00-.266-.379c-.082-.026-2.014-.596-3.334.33-.524.368-.858.908-1.076 1.43-.213-.522-.547-1.062-1.072-1.43-1.32-.926-3.252-.352-3.334-.33a.376.376 0 00-.266.38c.004.085.127 2.092 1.444 3.018.585.412 1.29.529 1.9.529.368 0 .698-.042.95-.087v.3c-1.04.068-1.935.334-2.577.732h-3.27v-1.5c0-1.223-1.699-2.183-3.904-2.243v-.285c.252.045.582.086.95.086.61 0 1.316-.116 1.9-.525 1.324-.926 1.444-2.936 1.452-3.022a.376.376 0 00-.267-.379c-.082-.026-2.013-.596-3.333.33-.525.368-.859.908-1.076 1.429-.214-.521-.548-1.061-1.073-1.429-1.32-.926-3.251-.352-3.334-.33a.376.376 0 00-.266.379c.004.086.127 2.092 1.444 3.019.585.412 1.29.528 1.901.528.368 0 .698-.04.949-.086v.3c-2.074.135-3.597 1.061-3.597 2.231v1.5H.75a.376.376 0 00-.375.375c0 .207.169.375.375.375h1.935c.079.27.236.522.473.75H1.5a.376.376 0 00-.375.375c0 .207.169.375.375.375H12a.376.376 0 00.375-.375.376.376 0 00-.375-.375h-1.658c.24-.232.402-.487.477-.76.018 0 .037.01.056.01h2.479a1.396 1.396 0 00-.229.75v1.875c0 .263.075.514.221.75H12a.376.376 0 00-.375.375c0 .207.169.375.375.375h10.5a.376.376 0 00.375-.375.376.376 0 00-.375-.375h-1.346c.146-.236.221-.487.221-.75v-1.875a1.37 1.37 0 00-.233-.75h2.108a.376.376 0 00.375-.375.376.376 0 00-.375-.375v-.007zM8.1 9.949c.758-.533 1.86-.402 2.385-.297-.082.53-.334 1.605-1.095 2.138-.758.532-1.86.401-2.385.296.083-.529.338-1.609 1.095-2.137zm-4.301 1.84c-.754-.528-1.009-1.608-1.091-2.14.524-.105 1.623-.237 2.38.296.758.529 1.013 1.609 1.096 2.141-.525.105-1.624.236-2.385-.296zm2.422 2.108V15c0 .206.169.375.375.375A.376.376 0 006.971 15v-1.121c1.868.056 3.154.813 3.154 1.496 0 .682-1.387 1.5-3.375 1.5-1.987 0-3.375-.791-3.375-1.5 0-.63 1.144-1.346 2.846-1.478zm-1.646 4.478c-.743-.293-1.2-.72-1.2-1.125v-.57c.739.574 1.961.945 3.375.945s2.636-.371 3.375-.945v.57c0 .409-.461.832-1.2 1.125h-4.35zM18.6 12.949c.758-.533 1.86-.402 2.385-.297-.082.53-.334 1.605-1.095 2.138-.758.532-1.86.401-2.385.296.082-.529.338-1.609 1.095-2.137zm-4.301 1.84c-.754-.528-1.009-1.608-1.091-2.14.524-.105 1.623-.237 2.38.296.758.529 1.013 1.609 1.096 2.141-.525.105-1.624.236-2.385-.296zm2.797 3.586a.376.376 0 00.375-.375v-1.121c1.868.056 3.154.813 3.154 1.496 0 .682-1.387 1.5-3.375 1.5s-3.375-.791-3.375-1.5c0-.63 1.144-1.346 2.846-1.478V18c0 .206.169.375.375.375zM14.37 21c-.214-.161-.495-.428-.495-.75v-.57c.739.574 1.961.945 3.375.945s2.636-.371 3.375-.945v.57c0 .322-.277.589-.495.75h-5.764.004z"/><path d="M10.5 19.875H3a.376.376 0 00-.375.375c0 .206.169.375.375.375h7.5a.376.376 0 00.375-.375.376.376 0 00-.375-.375zM5.494 5.576a.362.362 0 00.146.694h.63v.45c0 .101.083.184.18.184a.152.152 0 00.071-.015.18.18 0 00.113-.169v-.45h.258v.45c0 .101.083.184.18.184a.152.152 0 00.072-.015.18.18 0 00.112-.169v-.45H7.5a.993.993 0 00.986-.986.98.98 0 00-.326-.728.969.969 0 00.15-.513.987.987 0 00-.983-.987H7.26v-.551a.183.183 0 00-.18-.184.152.152 0 00-.071.015.18.18 0 00-.113.169v.551h-.258v-.551a.183.183 0 00-.18-.184.152.152 0 00-.072.015.18.18 0 00-.112.169v.551h-.627a.362.362 0 00-.364.364c0 .199.158.356.357.364v1.762a.355.355 0 00-.139.03h-.007zm1.83-1.792a.26.26 0 01.184.44.254.254 0 01-.18.074H6.36v-.514h.964zM7.5 5.029a.26.26 0 01.184.44.254.254 0 01-.18.074H6.36v-.514h1.144H7.5zm6.075 2.985a3.706 3.706 0 001.031 2.366 3.767 3.767 0 001.125.806 3.735 3.735 0 004.897-1.661c.125-.229.222-.48.293-.742a3.832 3.832 0 00.139-.994 3.748 3.748 0 00-1.054-2.606 3.746 3.746 0 00-6.42 2.179 3.94 3.94 0 00-.026.427c0 .056 0 .109.008.165v.06h.007zm.761-.559a3.004 3.004 0 012.981-2.666 3.002 3.002 0 012.487 1.324c.109.165.202.337.277.51a3.02 3.02 0 01.214 1.488 2.484 2.484 0 01-.09.465 2.993 2.993 0 01-2.887 2.209c-.44 0-.863-.094-1.264-.285a2.894 2.894 0 01-.548-.334 3.011 3.011 0 01-1.174-2.201V7.89a.564.564 0 01-.01-.109c0-.116.007-.228.018-.337l-.004.011z"/><path d="M15.885 7.785v.011h.004s.019.038.037.049l1.32.776 1.32-.776c.049-.03.068-.097.034-.146l-1.358-2.19-1.357 2.19a.097.097 0 00-.011.071v.011l.011.004z"/><path d="M17.171 9.967a.098.098 0 00.079.042c.03 0 .06-.015.079-.042l1.387-1.777c.03-.038-.015-.086-.052-.06l-1.414.907-1.414-.907c-.037-.026-.082.026-.052.06l1.387 1.777zM3.184 4.841a3.699 3.699 0 001.03 2.366 3.958 3.958 0 001.126.807 3.662 3.662 0 001.579.352A3.736 3.736 0 0010.53 5.61c.053-.188.094-.383.113-.581.014-.139.026-.274.026-.413A3.748 3.748 0 009.615 2.01 3.746 3.746 0 006 .983c-.064.014-.124.037-.184.056-.034.011-.071.018-.105.03a3.745 3.745 0 00-2.4 2.538c-.093.33-.141.67-.142 1.013 0 .052 0 .105.007.157v.068l.008-.004zm3.738-3.225c.653 0 1.275.21 1.8.604.268.2.5.445.687.724.108.165.202.337.277.51A3.034 3.034 0 019.9 4.946c0 .008 0 .019-.004.026a2.417 2.417 0 01-.079.405 2.631 2.631 0 01-.24.626 3 3 0 01-2.655 1.613 2.91 2.91 0 01-1.263-.285 2.894 2.894 0 01-.548-.334 3.011 3.011 0 01-1.174-2.201v-.082a.474.474 0 01-.01-.105c0-.117.007-.229.018-.334a2.998 2.998 0 012.978-2.666v.007zM21 22.5h-7.5a.376.376 0 00-.375.375c0 .206.169.375.375.375H21a.376.376 0 00.375-.375A.376.376 0 0021 22.5z"/></g><defs><clipPath id="clip0_49_567"><path fill="#fff" d="M0 0h24v24H0z"/></clipPath></defs></svg>