<svg width="24" height="24" fill="none" xmlns="http://www.w3.org/2000/svg"><path fill-rule="evenodd" clip-rule="evenodd" d="M17.91 13.097a.258.258 0 01-.516 0c0-.547-.326-.898-.742-1.052a1.61 1.61 0 00-1.084 0c-.417.154-.742.505-.742 1.052 0 .87.667 1.016 1.335 1.162.874.19 1.748.381 1.748 1.674 0 .8-.474 1.311-1.08 1.535a2.1 2.1 0 01-.462.11v.633a.258.258 0 01-.515 0v-.633a2.059 2.059 0 01-.461-.11c-.607-.224-1.08-.735-1.08-1.535a.256.256 0 01.156-.247.257.257 0 01.359.247c0 .548.325.898.742 1.052.35.125.733.125 1.084 0 .416-.154.742-.504.742-1.052 0-.878-.671-1.024-1.341-1.17-.872-.19-1.743-.38-1.743-1.666 0-.8.474-1.311 1.08-1.535.15-.054.305-.091.462-.11v-.633a.258.258 0 01.515 0v.633c.158.019.313.056.462.11.606.224 1.08.736 1.08 1.535zM5.955 4.729a.257.257 0 01-.243.453c-.096-.052-.249-.06-.423-.029-.21.04-.41.122-.587.242-.1.066-.189.146-.265.238a.512.512 0 00-.11.21.117.117 0 00.008.087.113.113 0 00.023.024c.183.146.505.036.827-.074.455-.156.91-.311 1.315.013a.619.619 0 01.218.363.61.61 0 01-.004.245c-.035.16-.109.31-.215.436a1.714 1.714 0 01-.377.34l-.013.008.123.257a.257.257 0 01-.463.221l-.118-.247a1.934 1.934 0 01-.315.085c-.284.05-.555.026-.755-.083a.257.257 0 01.243-.453c.096.052.249.06.424.029.21-.04.41-.122.587-.242a1.2 1.2 0 00.264-.237.512.512 0 00.11-.21.117.117 0 00-.008-.088.114.114 0 00-.023-.023c-.183-.147-.506-.037-.828.073-.455.155-.91.31-1.314-.013a.618.618 0 01-.218-.363.61.61 0 01.004-.244c.035-.161.11-.31.215-.436a1.67 1.67 0 01.377-.34l.013-.01-.13-.272a.257.257 0 01.462-.221l.126.263a1.93 1.93 0 01.315-.085c.284-.05.555-.025.756.083zm-3.61 4.234l.233.484a.997.997 0 00.662.537c.484.139 1.068.166 1.7.077.67-.1 1.32-.3 1.93-.597a6.668 6.668 0 001.675-1.13c.466-.438.812-.91 1.008-1.374.121-.287.132-.57-.004-.854l-.234-.488a3.31 3.31 0 01-.444.966C7.787 8.236 5.338 9.41 3.371 9.22c-.354-.03-.7-.117-1.026-.257zM1.793 7.82c.264.514.864.816 1.627.89 1.78.172 4.04-.912 5.021-2.407.43-.654.567-1.326.312-1.858-.299-.617-1.005-.86-1.643-.922-.825-.08-1.827.106-2.811.578-.983.471-1.756 1.135-2.21 1.828-.368.561-.606 1.25-.296 1.89zm-.479.19l.802 1.661c.093.197.229.372.397.51.173.14.373.241.587.3.551.157 1.208.19 1.911.09a7.167 7.167 0 002.08-.643 7.19 7.19 0 001.807-1.22c.517-.484.905-1.017 1.129-1.547.089-.204.135-.424.135-.646a1.47 1.47 0 00-.149-.63l-.797-1.662C8.843 3.434 7.978 3.09 7.158 3.01c-.911-.088-2.01.114-3.08.627-1.072.513-1.918 1.244-2.42 2.01-.451.687-.722 1.58-.344 2.363zm18.356-.463h-7.604a.46.46 0 00-.327.136.509.509 0 000 .696.46.46 0 00.327.136h7.604a.461.461 0 00.326-.136.508.508 0 000-.696.46.46 0 00-.326-.136zm-7.373-.515h7.054c-.01-1.242.266-2.464.67-3.633-1.257-.146-2.193-.032-2.808.343-.738.45-.92 1.247-.895 2.058a.257.257 0 01-.513.02c-.026-.558-.4-.874-.893-1.067-.617-.241-1.533-.335-2.747-.282-.18.007-.362.018-.55.032.298.822.526 1.668.682 2.53zm8.306.686c.276-.079.527-.226.73-.429a2.5 2.5 0 00.567-.834l-.603-.067c-.207.21-.387.409-.54.597-.112.137-.217.28-.313.429a.98.98 0 01.16.304zm-.064.781c.183.101.338.245.453.419.188.27.34.65.455 1.14l.854.024c-.093-.326-.3-.646-.567-.927a3.52 3.52 0 00-1.136-.796.965.965 0 01-.059.14zm-8.46 9.025H4.288a.189.189 0 00-.188.187v.937a.189.189 0 00.188.188h7.791a.189.189 0 00.187-.188v-.937a.189.189 0 00-.187-.187zm-.804-.515a.188.188 0 00.188-.187v-.938a.188.188 0 00-.188-.187H3.484a.188.188 0 00-.187.188v.937a.188.188 0 00.187.187h7.791zm.804-1.827a.188.188 0 00.187-.187v-.937a.189.189 0 00-.187-.187H4.288a.188.188 0 00-.188.187v.937a.188.188 0 00.188.187h7.791zm-.692-1.827a.189.189 0 00.187-.187v-.937a.188.188 0 00-.187-.187H3.595a.188.188 0 00-.187.187v.937a.188.188 0 00.187.187h7.792zM4.975 19.35a.188.188 0 00-.187.187v.937a.188.188 0 00.187.188h7.792a.188.188 0 00.187-.188v-.937a.188.188 0 00-.187-.187H4.975zm8.494.97c1.543.38 3.153.4 4.706.058 1.21-.273 2.314-.775 3.133-1.508.836-.747 1.374-1.73 1.429-2.947.096-2.12-1.053-3.42-1.906-5.183a10.518 10.518 0 01-.704-1.825.89.89 0 00.019-.01c.157.024.298.126.423.306.174.25.313.633.419 1.15a.257.257 0 00.245.205c.412.01.992.024 1.392.037a.257.257 0 00.24-.274c-.039-.552-.338-1.086-.758-1.53a4.096 4.096 0 00-.964-.744 2.43 2.43 0 00.544-.394c.384-.374.663-.84.81-1.356a.257.257 0 00-.175-.318c-.253-.025-.811-.093-1.091-.124a.257.257 0 00-.218.081 9.08 9.08 0 00-.655.717 5.413 5.413 0 00-.324.44.972.972 0 00-.169-.05c-.015-1.293.304-2.572.745-3.778a.259.259 0 00-.213-.344c-1.532-.22-2.682-.095-3.452.373-.544.331-.894.823-1.05 1.474a2.185 2.185 0 00-.796-.503c-.684-.267-1.67-.372-2.957-.317-.282.013-.584.033-.905.062a.257.257 0 00-.219.345c.325.876.6 1.79.763 2.71a.981.981 0 00-.406.245 1.023 1.023 0 000 1.424.983.983 0 00.372.234 9.471 9.471 0 01-.432 1.208 16.83 16.83 0 01-.662 1.344H3.595a.704.704 0 00-.702.702v.937a.704.704 0 00.717.703.7.7 0 00-.025.187v.937a.7.7 0 00.025.187h-.126a.704.704 0 00-.703.703v.937a.704.704 0 00.703.702h.126a.7.7 0 00-.025.187v.937a.704.704 0 00.713.703.7.7 0 00-.025.187v.937a.704.704 0 00.702.703h7.792a.704.704 0 00.702-.703v-.154zm-.713-1.486a.705.705 0 01.713.703v.25a9.816 9.816 0 004.593.089c1.129-.254 2.153-.717 2.904-1.39.736-.657 1.21-1.52 1.258-2.586.086-1.916-1.069-3.309-1.856-4.937a10.959 10.959 0 01-.741-1.934h-7.362a9.79 9.79 0 01-.477 1.358c-.163.378-.349.756-.551 1.14h.15a.704.704 0 01.702.703v.937a.697.697 0 01-.025.187.703.703 0 01.718.703v.937a.704.704 0 01-.703.702h-.127a.697.697 0 01.026.188v.937a.696.696 0 01-.025.187h.126a.704.704 0 01.703.702v.937a.696.696 0 01-.026.187z" fill="#05ACFF"/></svg>