<svg width="24" height="24" fill="none" xmlns="http://www.w3.org/2000/svg"><path d="M20.673 22.5H1.827a1.127 1.127 0 01-1.123-1.05l-.65-9.75a1.125 1.125 0 011.123-1.2h20.146a1.125 1.125 0 011.123 1.2l-.65 9.75c-.04.59-.53 1.049-1.123 1.05zM1.177 11.25a.375.375 0 00-.375.4l.65 9.75c.013.197.177.35.375.35h18.846a.375.375 0 00.375-.35l.65-9.75a.375.375 0 00-.375-.4H1.177z" fill="#05ACFF"/><path d="M18.92 20.25H3.58a.752.752 0 01-.75-.7l-.4-6a.75.75 0 01.75-.8H9a.375.375 0 010 .75H3.18l.4 6h15.34l.4-6H13.5a.375.375 0 010-.75h5.82a.75.75 0 01.75.8l-.4 6a.752.752 0 01-.75.7zm3.205-15H.375A.375.375 0 010 4.875V4.5A4.505 4.505 0 014.5 0H18a4.505 4.505 0 014.5 4.5v.375a.375.375 0 01-.375.375zM.75 4.5h21A3.754 3.754 0 0018 .75H4.5A3.754 3.754 0 00.75 4.5z" fill="#05ACFF"/><path d="M20.25 5.25h-18a.375.375 0 01-.375-.375v-.75C1.875 1.62 3.788 0 6.75 0h9c2.962 0 4.875 1.62 4.875 4.125v.75a.375.375 0 01-.375.375zM2.625 4.5h17.25v-.375c0-2.489-2.131-3.375-4.125-3.375h-9c-1.994 0-4.125.886-4.125 3.375V4.5zm8.625 12a2.628 2.628 0 01-2.625-2.625v-3c0-.207.168-.375.375-.375h4.5c.207 0 .375.168.375.375v3A2.628 2.628 0 0111.25 16.5zm-1.875-5.25v2.625a1.875 1.875 0 003.75 0V11.25h-3.75z" fill="#05ACFF"/><path d="M11.25 14.25a1.125 1.125 0 110-2.25 1.125 1.125 0 010 2.25zm0-1.5a.375.375 0 100 .75.375.375 0 000-.75zm8.741-9H2.51a.375.375 0 110-.75h17.48a.375.375 0 110 .75zm-.885-1.5H3.394a.375.375 0 010-.75h15.712a.375.375 0 010 .75z" fill="#05ACFF"/><path d="M11.25 15a.375.375 0 01-.375-.375v-.75a.375.375 0 11.75 0v.75a.375.375 0 01-.375.375zm8.321.75h-6.648a.375.375 0 110-.75h6.648a.375.375 0 010 .75zm-9.993 0h-6.65a.375.375 0 010-.75h6.65a.375.375 0 010 .75zM19.42 18H3.08a.375.375 0 110-.75h16.34a.375.375 0 010 .75zm-5.4-9.713a.368.368 0 01-.125-.021l-.014-.004a.375.375 0 11.178-.729l.024.007a.379.379 0 01.13.693.375.375 0 01-.193.054zm5.48 2.963a.375.375 0 01-.343-.525l2.625-6a.375.375 0 01.686.3l-2.624 6a.375.375 0 01-.344.225zM8.4 8.14a.375.375 0 01-.08-.741 12.182 12.182 0 014.073-.182.375.375 0 01-.095.744 11.446 11.446 0 00-3.817.17.369.369 0 01-.08.01zM3 11.25a.375.375 0 01-.344-.225l-2.625-6a.375.375 0 01.687-.3l2.625 6A.375.375 0 013 11.25z" fill="#05ACFF"/><path d="M18.566 10.971a.375.375 0 01-.191-.052l-6.318-3.732a.375.375 0 01.098-.686l1.827-.47a.372.372 0 01.284.04l1.43.845.006.003 2.585 1.527c.085.05.147.133.172.23l.47 1.827a.376.376 0 01-.363.468zm-5.347-3.97l4.758 2.813-.206-.8-1.294-.764-.008-.005-2.45-1.448-.8.205z" fill="#05ACFF"/><path d="M15.282 11.25a.375.375 0 01-.24-.663l1.377-1.146-.371-1.447-.413-.245a.424.424 0 01-.031-.016l-1.72-1.016a.375.375 0 01.38-.646l1.694 1a.427.427 0 01.033.017l.573.341c.085.05.147.133.172.229l.469 1.827a.375.375 0 01-.124.381l-1.56 1.297a.375.375 0 01-.24.087z" fill="#05ACFF"/><path d="M13.395 11.25a.375.375 0 01-.369-.446l.578-2.993a.375.375 0 01.274-.292l1.823-.472a.388.388 0 01.29.04l2.294 1.358a.375.375 0 01-.382.645L15.74 7.811l-1.445.376-.534 2.759a.374.374 0 01-.367.304z" fill="#05ACFF"/><path d="M12.78 11.25a.374.374 0 01-.372-.326l-.532-4.012a.375.375 0 01.743-.099l.533 4.013a.377.377 0 01-.372.424zm5.074 0a.375.375 0 01-.136-.725l.712-.277a.375.375 0 01.273.699l-.713.277a.379.379 0 01-.136.026zm-8.231 0a.375.375 0 01-.368-.443l.29-1.572L7.572 7.55l-2.446.862-.466 2.528a.375.375 0 11-.738-.136l.506-2.741a.375.375 0 01.244-.286L7.526 6.77a.375.375 0 01.369.07l2.301 1.964a.375.375 0 01.126.353l-.33 1.785a.375.375 0 01-.37.309z" fill="#05ACFF"/><path d="M8.093 11.25a.375.375 0 01-.369-.444l.185-.992-.654-.563-.813.287-.158.85.237.2a.376.376 0 01-.488.572l-.402-.341a.376.376 0 01-.125-.359l.236-1.27a.375.375 0 01.244-.286l1.222-.43a.375.375 0 01.37.068l.959.825a.375.375 0 01.148.37l-.226 1.208a.375.375 0 01-.366.305z" fill="#05ACFF"/><path d="M6.033 9.656a.376.376 0 01-.255-.1L4.54 8.41a.375.375 0 01.51-.55l1.238 1.146a.375.375 0 01-.255.65zM4.9 11.25a.375.375 0 01-.125-.729l.975-.345a.375.375 0 01.249.708l-.975.345a.375.375 0 01-.124.021zm3.412-1.207a.375.375 0 01-.124-.73l1.638-.575a.375.375 0 01.249.707l-1.639.576a.378.378 0 01-.124.022zm-.865-.886c-.016 0-.03 0-.047-.002a.374.374 0 01-.326-.419l.203-1.656a.375.375 0 11.745.09L7.82 8.828a.375.375 0 01-.372.33z" fill="#05ACFF"/></svg>