<svg width="103" height="132" fill="none" xmlns="http://www.w3.org/2000/svg"><path d="M90.543 19.034c2.673 4.535 2.81 8.946.565 18.621-1.212 5.3-1.465 7.8-1.026 8.752 1.246 2.347 1.29 12.289.134 18.158-1.213 6.341-4.432 13.95-9.821 22.921-3.684 6.234-3.192 5.95-11.379 6.186-3.694.052-5.245.4-5.83 1.285-.753 1.256-1.807 1.043-8.197-2.058-1.727-.81-2.475-.871-2.842-.275-5.109 8.699-6.368 10.028-8.57 9.438-.648-.174-1.287-.9-1.52-1.587-.395-1.634-.412-1.57-3.795 2.246-4.062 4.536-10.864 9.448-12.713 9.092-.259-.069.085-2.13.727-4.527.66-2.462 1.038-4.652.913-4.963-.207-.264-3.412 2.627-7.218 6.468-4.931 4.928-7.258 6.873-8.165 6.63-1.101-.295-.975-1.025 1.316-9.576l2.5-9.33-2.75 1.972c-1.53 1.048-2.85 2.083-2.92 2.342-.086.324-.527.414-1.045.276-2.332-.625 2.313-15.629 6.744-21.801 1.234-1.753 3.786-4.54 5.602-6.137l3.287-2.939-1.23-1.37c-2.937-3.288-4.088-5.47-3.404-6.468.45-.643.038-3.253-.96-6.784l-1.678-5.657 3.036-2.52a1102.93 1102.93 0 009.112-7.834c7.032-6.032 13.903-11.204 17.976-13.445 3.35-1.88 9.65-3.108 12.242-2.414 1.49.4 2.424.025 4.223-1.507 3.68-3.11 10.623-6.736 14.607-7.612 2.515-.576 4.663-.556 6.865.034 2.916.781 3.364 1.18 5.214 4.383zm-11.519-2.878c-1.175.24-2.014.78-1.86 1.237.676 2.403 8.562 8.474 12.255 9.464 1.75.468 1.945-.52.999-4.246-1.36-5.294-5.646-7.693-11.394-6.455zm-8.736 3.839c-8.418 5.243-39.125 32.774-39.924 35.754-.26.972 8.094 9.182 14.759 14.37 6.487 5.071 17.772 12.192 21.106 13.224l2.686.859 2.879-4.784c7.865-13.03 18.92-41.59 18.83-48.767-.024-1.464-.52-1.945-2.766-2.893-4.685-1.95-7.677-4.002-10.373-7.154-2.791-3.317-2.938-3.287-7.197-.61zm-17.41 5.889c-5.488 1.307-9.915 4.356-27.08 18.92l-6.634 5.583 1.16 4.478c.594 2.45 1.356 4.529 1.745 4.633.777.209.215.752 14.303-12.693C42.44 41 49.992 34.068 53.244 31.259c3.235-2.744 5.93-5.285 6.034-5.674.208-.777-2.168-.72-6.4.299zm31.97 29.952c-4.91 12.364-10.024 22.38-15.68 30.794-1.789 2.785-3.308 5.086-3.325 5.15-.07.26 4.39.204 7.288.009 2.576-.282 3.004-.584 4.978-3.805C85.398 76.328 89.55 64.457 89.476 55.41c-.076-5.159-.449-8.175-1.024-7.843-.229.078-1.789 3.826-3.604 8.27zm-60.322 4.598c-.917 1.352.445 3.522 5.149 8.254 6.542 6.683 23.601 18.683 30.484 21.5 3.572 1.443 3.636 1.46 4.77-.18 2.631-3.6 2.554-3.83-2.718-6.7-11.528-6.213-21.313-13.488-30.112-22.372l-3.823-3.871-1.483 1.13c-.856.604-1.899 1.644-2.267 2.24zm-2.566 3.618c1.663 3.64 13.712 14.645 22.256 20.336 4.295 2.887 15.701 9.554 16.867 9.866.324.087.688-.232.826-.75.157-.583-.97-1.302-3.28-2.268-9.358-3.688-33.655-22.627-35.057-27.239-.108-.376-.622-.79-1.205-.947-.842-.226-.894-.031-.407 1.002zm.809 9.937c-5.502 4.984-8.328 9.573-10.718 17.195l-2.233 7.04 4.194-2.695c2.334-1.458 4.288-2.531 4.43-2.285.143.247-.703 3.145-1.93 6.427-2.808 7.371-4.487 13.379-3.84 13.552.325.087 1.877-1.302 3.534-3.08 5.351-5.718 13.595-13.161 14.044-12.763.207.264-.423 2.873-1.368 5.883-1.167 3.576-1.558 5.554-1.104 5.675 1.554.417 9.85-7.22 12.508-11.438 1.722-2.802 2.617-2.77 3.054.263.223 1.24.693 2.338 1.081 2.442.843.226 4.2-4.013 5.569-7.048 1.066-2.423.591-3.244-3.087-5.063-1.758-.957-1.987-.88-3.324 1.262-2.688 4.07-9.216 11.07-9.971 10.52-.419-.25-.451-2.203-.155-4.346.297-2.142.411-4.125.204-4.389-.142-.246-2.126.68-4.396 2.155-5.214 3.394-6.117 2.874-4.253-2.528l1.4-3.93-2.883 1.172c-4.52 1.843-4.627.426-.174-6.088 2.052-2.991 4.15-5.9 4.566-6.414.662-.656.559-1.309-.287-2.3-1.674-2.045-1.903-1.967-4.861.781zm3.483 6.697c-1.818 2.637-3.16 5.055-3.083 5.284.143.247 1.564-.136 3.185-.743l2.9-1.237-1.69 4.755-1.69 4.754 4.457-2.902c2.434-1.57 4.73-2.62 5.002-2.34.319.364.351 2.316.09 4.33-.327 1.995-.307 3.736.017 3.823.647.173 7-7.984 7.433-9.604.243-.907-1.133-2.248-5.553-5.446-3.199-2.315-5.862-4.556-5.97-4.932-.495-1.522-1.913-.374-5.098 4.258z" fill="url(#paint0_linear_32_30295)"/><path d="M80.62 28.874c1.86 1.609 2.038 4.573.476 6.515-1.528 1.813-2.815 1.954-5.527.672-3.938-1.888-3.58-7.625.486-8.55 1.862-.472 2.834-.212 4.565 1.363zm-5.471 1.242c-1.588 1.518-.661 3.503 1.995 4.214 1.814.486 2.337.349 2.796-.847.356-.808.391-1.979.077-2.618-.707-1.509-3.58-1.932-4.868-.75z" fill="url(#paint1_linear_32_30295)"/><path d="M54.985 39.017c-.087.324-2.522 2.935-5.351 5.718-2.911 2.831-5.558 5.455-5.956 5.903-.943.928-2.542 1.194-2.316.352.277-1.037 12.103-12.519 12.95-12.57.488-.008.76.273.673.597z" fill="url(#paint2_linear_32_30295)"/><path d="M68.418 49.004c2.177 4.055 1.712 6.569-1.856 9.779-3.205 2.89-6.29 3.522-9.11 1.864-6.122-3.585-5.652-13.11.689-15.786 1.344-.612 2.938-.601 5.206.006 2.98.799 3.429 1.197 5.071 4.137zm-8.2-2.823c-1.271.077-2.88.895-3.939 2-1.475 1.619-1.714 2.249-1.626 4.772.096 3.012 2.304 6.172 4.896 6.867 1.943.52 4.978-.958 7.102-3.444 1.709-1.972 1.761-2.166 1.198-4.47-.516-2.221-3.053-5.192-4.785-5.726-.388-.104-1.706-.11-2.847.001z" fill="url(#paint3_linear_32_30295)"/><path d="M38.368 55.95c-.35.531-.7 1.062-.735 1.192-.035.13-.523.137-1.042-.001-1.166-.313-1.022-1.108.292-1.866 1.396-.807 2.269-.434 1.485.675z" fill="url(#paint4_linear_32_30295)"/><defs><linearGradient id="paint0_linear_32_30295" x1="55.337" y1="127.085" x2="-4.481" y2="110.07" gradientUnits="userSpaceOnUse"><stop stop-color="#487BFF"/><stop offset="1" stop-color="#4627FF"/></linearGradient><linearGradient id="paint1_linear_32_30295" x1="78.714" y1="37.114" x2="71.07" y2="34.862" gradientUnits="userSpaceOnUse"><stop stop-color="#487BFF"/><stop offset="1" stop-color="#4627FF"/></linearGradient><linearGradient id="paint2_linear_32_30295" x1="48.674" y1="53.362" x2="40.579" y2="51.061" gradientUnits="userSpaceOnUse"><stop stop-color="#487BFF"/><stop offset="1" stop-color="#4627FF"/></linearGradient><linearGradient id="paint3_linear_32_30295" x1="63.356" y1="62.488" x2="49.985" y2="58.566" gradientUnits="userSpaceOnUse"><stop stop-color="#487BFF"/><stop offset="1" stop-color="#4627FF"/></linearGradient><linearGradient id="paint4_linear_32_30295" x1="37.501" y1="57.384" x2="35.502" y2="56.8" gradientUnits="userSpaceOnUse"><stop stop-color="#487BFF"/><stop offset="1" stop-color="#4627FF"/></linearGradient></defs></svg>