<svg width="508" height="508" fill="none" xmlns="http://www.w3.org/2000/svg"><g filter="url(#filter0_d_4_902)"><circle cx="256.662" cy="251.011" r="152.883" fill="#35BCFE" fill-opacity=".15" shape-rendering="crispEdges"/></g><g filter="url(#filter1_d_4_902)"><circle cx="256.341" cy="250.689" r="179.653" fill="#35BCFE" fill-opacity=".15" shape-rendering="crispEdges"/></g><g filter="url(#filter2_d_4_902)"><circle cx="253.725" cy="250.826" r="214.482" fill="#35BCFE" fill-opacity=".15" shape-rendering="crispEdges"/></g><g filter="url(#filter3_d_4_902)"><circle cx="254" cy="250" r="250" fill="#35BCFE" fill-opacity=".15" shape-rendering="crispEdges"/></g><g filter="url(#filter4_d_4_902)"><circle cx="256.341" cy="250.688" r="119.661" fill="#35BCFE" fill-opacity=".15" shape-rendering="crispEdges"/></g><g filter="url(#filter5_d_4_902)"><circle cx="256.341" cy="250.689" r="81.602" fill="#35BCFE" fill-opacity=".15" shape-rendering="crispEdges"/></g><mask id="a" style="mask-type:luminance" maskUnits="userSpaceOnUse" x="72" y="39" width="12" height="12"><path d="M84 39H72v12h12V39z" fill="#fff"/></mask><g mask="url(#a)"><path d="M78.7 40.096a1.402 1.402 0 00-1.4 0l.374.65a.652.652 0 01.652 0l.375-.65zm2.821 2.495a.65.65 0 01.326.564h.75a1.4 1.4 0 00-.7-1.214l-.376.65zm.326 4.254a.651.651 0 01-.326.564l.375.65a1.4 1.4 0 00.7-1.214h-.75zm-3.521 2.409a.652.652 0 01-.652 0l-.375.65c.434.25.968.25 1.402 0l-.375-.65zm-3.847-1.845a.651.651 0 01-.326-.564h-.75c0 .5.267.963.7 1.214l.376-.65zm-.326-4.254a.65.65 0 01.326-.564l-.375-.65a1.4 1.4 0 00-.7 1.214h.75zm.326-.564l3.195-1.845-.375-.65-3.195 1.846.375.649zm-.326 4.254v-3.69h-.75v3.69h.75zm3.521 2.409l-3.195-1.845-.375.65 3.195 1.845.375-.65zm3.847-1.845l-3.195 1.845.375.65 3.195-1.846-.375-.649zm.326-4.254v3.69h.75v-3.69h-.75zm-3.521-2.409l3.195 1.845.375-.65-3.195-1.845-.375.65z" fill="#07ACFF"/></g><mask id="b" style="mask-type:luminance" maskUnits="userSpaceOnUse" x="249" y="92" width="12" height="12"><path d="M261 92h-12v12h12V92z" fill="#fff"/></mask><g mask="url(#b)"><path d="M255.701 93.097a1.403 1.403 0 00-1.402 0l.375.649a.653.653 0 01.652 0l.375-.65zm2.82 2.494a.65.65 0 01.326.564h.75a1.4 1.4 0 00-.701-1.213l-.375.649zm.326 4.254a.65.65 0 01-.326.564l.375.649c.434-.25.701-.712.701-1.213h-.75zm-3.521 2.409a.654.654 0 01-.652 0l-.375.649a1.4 1.4 0 001.402 0l-.375-.649zm-3.847-1.845a.65.65 0 01-.326-.564h-.75c0 .501.267.963.701 1.213l.375-.649zm-.326-4.254a.65.65 0 01.326-.564l-.375-.65a1.4 1.4 0 00-.701 1.214h.75zm.326-.564l3.195-1.845-.375-.65-3.195 1.846.375.649zm-.326 4.254v-3.69h-.75v3.69h.75zm3.521 2.409l-3.195-1.845-.375.649 3.195 1.845.375-.649zm3.847-1.845l-3.195 1.845.375.649 3.195-1.845-.375-.649zm.326-4.254v3.69h.75v-3.69h-.75zm-3.521-2.409l3.195 1.845.375-.65-3.195-1.844-.375.649z" fill="#07ACFF"/></g><mask id="c" style="mask-type:luminance" maskUnits="userSpaceOnUse" x="104" y="203" width="12" height="12"><path d="M116 203h-12v12h12v-12z" fill="#fff"/></mask><g mask="url(#c)"><path d="M110.701 204.097a1.4 1.4 0 00-1.402 0l.375.649a.654.654 0 01.652 0l.375-.649zm2.82 2.494a.65.65 0 01.326.564h.75c0-.501-.267-.963-.701-1.214l-.375.65zm.326 4.254a.65.65 0 01-.326.564l.375.649c.434-.25.701-.712.701-1.213h-.75zm-3.521 2.409a.654.654 0 01-.652 0l-.375.649a1.4 1.4 0 001.402 0l-.375-.649zm-3.847-1.845a.65.65 0 01-.326-.564h-.75c0 .501.267.963.701 1.213l.375-.649zm-.326-4.254a.65.65 0 01.326-.564l-.375-.65a1.402 1.402 0 00-.701 1.214h.75zm.326-.564l3.195-1.845-.375-.649-3.195 1.844.375.65zm-.326 4.254v-3.69h-.75v3.69h.75zm3.521 2.409l-3.195-1.845-.375.649 3.195 1.845.375-.649zm3.847-1.845l-3.195 1.845.375.649 3.195-1.845-.375-.649zm.326-4.254v3.69h.75v-3.69h-.75zm-3.521-2.409l3.195 1.845.375-.65-3.195-1.844-.375.649z" fill="#07ACFF"/></g><mask id="d" style="mask-type:luminance" maskUnits="userSpaceOnUse" x="81" y="392" width="12" height="12"><path d="M93 392H81v12h12v-12z" fill="#fff"/></mask><g mask="url(#d)"><path d="M87.7 393.097a1.398 1.398 0 00-1.4 0l.374.649a.653.653 0 01.652 0l.375-.649zm2.821 2.494a.65.65 0 01.326.564h.75c0-.501-.267-.963-.7-1.214l-.376.65zm.326 4.254a.65.65 0 01-.326.564l.375.649a1.4 1.4 0 00.7-1.213h-.75zm-3.521 2.409a.653.653 0 01-.652 0l-.375.649a1.4 1.4 0 001.402 0l-.375-.649zm-3.847-1.845a.65.65 0 01-.326-.564h-.75c0 .501.267.963.7 1.213l.376-.649zm-.326-4.254a.65.65 0 01.326-.564l-.375-.65a1.4 1.4 0 00-.7 1.214h.75zm.326-.564l3.195-1.845-.375-.649-3.195 1.844.375.65zm-.326 4.254v-3.69h-.75v3.69h.75zm3.521 2.409l-3.195-1.845-.375.649 3.195 1.845.375-.649zm3.847-1.845l-3.195 1.845.375.649 3.195-1.845-.375-.649zm.326-4.254v3.69h.75v-3.69h-.75zm-3.521-2.409l3.195 1.845.375-.65-3.195-1.844-.375.649z" fill="#07ACFF"/></g><mask id="e" style="mask-type:luminance" maskUnits="userSpaceOnUse" x="215" y="398" width="12" height="12"><path d="M227 398h-12v12h12v-12z" fill="#fff"/></mask><g mask="url(#e)"><path d="M221.701 399.097a1.4 1.4 0 00-1.402 0l.375.649a.654.654 0 01.652 0l.375-.649zm2.82 2.494a.65.65 0 01.326.564h.75c0-.501-.267-.963-.701-1.214l-.375.65zm.326 4.254a.65.65 0 01-.326.564l.375.649c.434-.25.701-.712.701-1.213h-.75zm-3.521 2.409a.654.654 0 01-.652 0l-.375.649a1.4 1.4 0 001.402 0l-.375-.649zm-3.847-1.845a.65.65 0 01-.326-.564h-.75c0 .501.267.963.701 1.213l.375-.649zm-.326-4.254a.65.65 0 01.326-.564l-.375-.65a1.402 1.402 0 00-.701 1.214h.75zm.326-.564l3.195-1.845-.375-.649-3.195 1.844.375.65zm-.326 4.254v-3.69h-.75v3.69h.75zm3.521 2.409l-3.195-1.845-.375.649 3.195 1.845.375-.649zm3.847-1.845l-3.195 1.845.375.649 3.195-1.845-.375-.649zm.326-4.254v3.69h.75v-3.69h-.75zm-3.521-2.409l3.195 1.845.375-.65-3.195-1.844-.375.649z" fill="#07ACFF"/></g><mask id="f" style="mask-type:luminance" maskUnits="userSpaceOnUse" x="326" y="446" width="12" height="12"><path d="M338 446h-12v12h12v-12z" fill="#fff"/></mask><g mask="url(#f)"><path d="M332.701 447.097a1.4 1.4 0 00-1.402 0l.375.649a.654.654 0 01.652 0l.375-.649zm2.82 2.494a.65.65 0 01.326.564h.75c0-.501-.267-.963-.701-1.214l-.375.65zm.326 4.254a.65.65 0 01-.326.564l.375.649c.434-.25.701-.712.701-1.213h-.75zm-3.521 2.409a.654.654 0 01-.652 0l-.375.649a1.4 1.4 0 001.402 0l-.375-.649zm-3.847-1.845a.65.65 0 01-.326-.564h-.75c0 .501.267.963.701 1.213l.375-.649zm-.326-4.254a.65.65 0 01.326-.564l-.375-.65a1.402 1.402 0 00-.701 1.214h.75zm.326-.564l3.195-1.845-.375-.649-3.195 1.844.375.65zm-.326 4.254v-3.69h-.75v3.69h.75zm3.521 2.409l-3.195-1.845-.375.649 3.195 1.845.375-.649zm3.847-1.845l-3.195 1.845.375.649 3.195-1.845-.375-.649zm.326-4.254v3.69h.75v-3.69h-.75zm-3.521-2.409l3.195 1.845.375-.65-3.195-1.844-.375.649z" fill="#07ACFF"/></g><mask id="g" style="mask-type:luminance" maskUnits="userSpaceOnUse" x="403" y="329" width="12" height="12"><path d="M415 329h-12v12h12v-12z" fill="#fff"/></mask><g mask="url(#g)"><path d="M409.701 330.097a1.4 1.4 0 00-1.402 0l.375.649a.654.654 0 01.652 0l.375-.649zm2.82 2.494a.65.65 0 01.326.564h.75c0-.501-.267-.963-.701-1.214l-.375.65zm.326 4.254a.65.65 0 01-.326.564l.375.649c.434-.25.701-.712.701-1.213h-.75zm-3.521 2.409a.654.654 0 01-.652 0l-.375.649a1.4 1.4 0 001.402 0l-.375-.649zm-3.847-1.845a.65.65 0 01-.326-.564h-.75c0 .501.267.963.701 1.213l.375-.649zm-.326-4.254a.65.65 0 01.326-.564l-.375-.65a1.402 1.402 0 00-.701 1.214h.75zm.326-.564l3.195-1.845-.375-.649-3.195 1.844.375.65zm-.326 4.254v-3.69h-.75v3.69h.75zm3.521 2.409l-3.195-1.845-.375.649 3.195 1.845.375-.649zm3.847-1.845l-3.195 1.845.375.649 3.195-1.845-.375-.649zm.326-4.254v3.69h.75v-3.69h-.75zm-3.521-2.409l3.195 1.845.375-.65-3.195-1.844-.375.649z" fill="#07ACFF"/></g><mask id="h" style="mask-type:luminance" maskUnits="userSpaceOnUse" x="390" y="203" width="12" height="12"><path d="M402 203h-12v12h12v-12z" fill="#fff"/></mask><g mask="url(#h)"><path d="M396.701 204.097a1.4 1.4 0 00-1.402 0l.375.649a.654.654 0 01.652 0l.375-.649zm2.82 2.494a.65.65 0 01.326.564h.75c0-.501-.267-.963-.701-1.214l-.375.65zm.326 4.254a.65.65 0 01-.326.564l.375.649c.434-.25.701-.712.701-1.213h-.75zm-3.521 2.409a.654.654 0 01-.652 0l-.375.649a1.4 1.4 0 001.402 0l-.375-.649zm-3.847-1.845a.65.65 0 01-.326-.564h-.75c0 .501.267.963.701 1.213l.375-.649zm-.326-4.254a.65.65 0 01.326-.564l-.375-.65a1.402 1.402 0 00-.701 1.214h.75zm.326-.564l3.195-1.845-.375-.649-3.195 1.844.375.65zm-.326 4.254v-3.69h-.75v3.69h.75zm3.521 2.409l-3.195-1.845-.375.649 3.195 1.845.375-.649zm3.847-1.845l-3.195 1.845.375.649 3.195-1.845-.375-.649zm.326-4.254v3.69h.75v-3.69h-.75zm-3.521-2.409l3.195 1.845.375-.65-3.195-1.844-.375.649z" fill="#07ACFF"/></g><mask id="i" style="mask-type:luminance" maskUnits="userSpaceOnUse" x="404" y="92" width="12" height="12"><path d="M416 92h-12v12h12V92z" fill="#fff"/></mask><g mask="url(#i)"><path d="M410.701 93.097a1.403 1.403 0 00-1.402 0l.375.649a.653.653 0 01.652 0l.375-.65zm2.82 2.494a.65.65 0 01.326.564h.75a1.4 1.4 0 00-.701-1.213l-.375.649zm.326 4.254a.65.65 0 01-.326.564l.375.649c.434-.25.701-.712.701-1.213h-.75zm-3.521 2.409a.654.654 0 01-.652 0l-.375.649a1.4 1.4 0 001.402 0l-.375-.649zm-3.847-1.845a.65.65 0 01-.326-.564h-.75c0 .501.267.963.701 1.213l.375-.649zm-.326-4.254a.65.65 0 01.326-.564l-.375-.65a1.4 1.4 0 00-.701 1.214h.75zm.326-.564l3.195-1.845-.375-.65-3.195 1.846.375.649zm-.326 4.254v-3.69h-.75v3.69h.75zm3.521 2.409l-3.195-1.845-.375.649 3.195 1.845.375-.649zm3.847-1.845l-3.195 1.845.375.649 3.195-1.845-.375-.649zm.326-4.254v3.69h.75v-3.69h-.75zm-3.521-2.409l3.195 1.845.375-.65-3.195-1.844-.375.649z" fill="#07ACFF"/></g><mask id="j" style="mask-type:luminance" maskUnits="userSpaceOnUse" x="301" y="39" width="12" height="12"><path d="M313 39h-12v12h12V39z" fill="#fff"/></mask><g mask="url(#j)"><path d="M307.701 40.096a1.403 1.403 0 00-1.402 0l.375.65a.653.653 0 01.652 0l.375-.65zm2.82 2.495a.65.65 0 01.326.564h.75a1.4 1.4 0 00-.701-1.214l-.375.65zm.326 4.254a.65.65 0 01-.326.564l.375.65a1.4 1.4 0 00.701-1.214h-.75zm-3.521 2.409a.653.653 0 01-.652 0l-.375.65c.434.25.968.25 1.402 0l-.375-.65zm-3.847-1.845a.65.65 0 01-.326-.564h-.75c0 .5.267.963.701 1.214l.375-.65zm-.326-4.254a.65.65 0 01.326-.564l-.375-.65a1.4 1.4 0 00-.701 1.214h.75zm.326-.564l3.195-1.845-.375-.65-3.195 1.846.375.649zm-.326 4.254v-3.69h-.75v3.69h.75zm3.521 2.409l-3.195-1.845-.375.65 3.195 1.845.375-.65zm3.847-1.845l-3.195 1.845.375.65 3.195-1.846-.375-.649zm.326-4.254v3.69h.75v-3.69h-.75zm-3.521-2.409l3.195 1.845.375-.65-3.195-1.845-.375.65z" fill="#07ACFF"/></g><mask id="k" style="mask-type:luminance" maskUnits="userSpaceOnUse" x="131" y="111" width="12" height="12"><path d="M143 111h-12v12h12v-12z" fill="#fff"/></mask><g mask="url(#k)"><path d="M137.701 112.097a1.4 1.4 0 00-1.402 0l.375.649a.654.654 0 01.652 0l.375-.649zm2.82 2.494a.65.65 0 01.326.564h.75c0-.501-.267-.963-.701-1.214l-.375.65zm.326 4.254a.65.65 0 01-.326.564l.375.649c.434-.25.701-.712.701-1.213h-.75zm-3.521 2.409a.654.654 0 01-.652 0l-.375.649a1.4 1.4 0 001.402 0l-.375-.649zm-3.847-1.845a.65.65 0 01-.326-.564h-.75c0 .501.267.963.701 1.213l.375-.649zm-.326-4.254a.65.65 0 01.326-.564l-.375-.65a1.402 1.402 0 00-.701 1.214h.75zm.326-.564l3.195-1.845-.375-.649-3.195 1.844.375.65zm-.326 4.254v-3.69h-.75v3.69h.75zm3.521 2.409l-3.195-1.845-.375.649 3.195 1.845.375-.649zm3.847-1.845l-3.195 1.845.375.649 3.195-1.845-.375-.649zm.326-4.254v3.69h.75v-3.69h-.75zm-3.521-2.409l3.195 1.845.375-.65-3.195-1.844-.375.649z" fill="#07ACFF"/></g><mask id="l" style="mask-type:luminance" maskUnits="userSpaceOnUse" x="94" y="323" width="12" height="12"><path d="M106 323H94v12h12v-12z" fill="#fff"/></mask><g mask="url(#l)"><path d="M100.701 324.097a1.399 1.399 0 00-1.402 0l.375.649a.654.654 0 01.652 0l.375-.649zm2.82 2.494a.65.65 0 01.326.564h.75c0-.501-.267-.963-.701-1.214l-.375.65zm.326 4.254a.65.65 0 01-.326.564l.375.649c.434-.25.701-.712.701-1.213h-.75zm-3.521 2.409a.654.654 0 01-.652 0l-.375.649a1.4 1.4 0 001.402 0l-.375-.649zm-3.847-1.845a.65.65 0 01-.326-.564h-.75c0 .501.267.963.7 1.213l.376-.649zm-.326-4.254a.65.65 0 01.326-.564l-.375-.65a1.4 1.4 0 00-.7 1.214h.75zm.326-.564l3.195-1.845-.375-.649-3.195 1.844.375.65zm-.326 4.254v-3.69h-.75v3.69h.75zm3.521 2.409l-3.195-1.845-.375.649 3.195 1.845.375-.649zm3.847-1.845l-3.195 1.845.375.649 3.195-1.845-.375-.649zm.326-4.254v3.69h.75v-3.69h-.75zm-3.521-2.409l3.195 1.845.375-.65-3.195-1.844-.375.649z" fill="#07ACFF"/></g><mask id="m" style="mask-type:luminance" maskUnits="userSpaceOnUse" x="357" y="380" width="12" height="12"><path d="M369 380h-12v12h12v-12z" fill="#fff"/></mask><g mask="url(#m)"><path d="M363.701 381.097a1.4 1.4 0 00-1.402 0l.375.649a.654.654 0 01.652 0l.375-.649zm2.82 2.494a.65.65 0 01.326.564h.75c0-.501-.267-.963-.701-1.214l-.375.65zm.326 4.254a.65.65 0 01-.326.564l.375.649c.434-.25.701-.712.701-1.213h-.75zm-3.521 2.409a.654.654 0 01-.652 0l-.375.649a1.4 1.4 0 001.402 0l-.375-.649zm-3.847-1.845a.65.65 0 01-.326-.564h-.75c0 .501.267.963.701 1.213l.375-.649zm-.326-4.254a.65.65 0 01.326-.564l-.375-.65a1.402 1.402 0 00-.701 1.214h.75zm.326-.564l3.195-1.845-.375-.649-3.195 1.844.375.65zm-.326 4.254v-3.69h-.75v3.69h.75zm3.521 2.409l-3.195-1.845-.375.649 3.195 1.845.375-.649zm3.847-1.845l-3.195 1.845.375.649 3.195-1.845-.375-.649zm.326-4.254v3.69h.75v-3.69h-.75zm-3.521-2.409l3.195 1.845.375-.65-3.195-1.844-.375.649z" fill="#07ACFF"/></g><mask id="n" style="mask-type:luminance" maskUnits="userSpaceOnUse" x="151" y="452" width="12" height="12"><path d="M163 452h-12v12h12v-12z" fill="#fff"/></mask><g mask="url(#n)"><path d="M157.701 453.097a1.4 1.4 0 00-1.402 0l.375.649a.654.654 0 01.652 0l.375-.649zm2.82 2.494a.65.65 0 01.326.564h.75c0-.501-.267-.963-.701-1.214l-.375.65zm.326 4.254a.65.65 0 01-.326.564l.375.649c.434-.25.701-.712.701-1.213h-.75zm-3.521 2.409a.654.654 0 01-.652 0l-.375.649a1.4 1.4 0 001.402 0l-.375-.649zm-3.847-1.845a.65.65 0 01-.326-.564h-.75c0 .501.267.963.701 1.213l.375-.649zm-.326-4.254a.65.65 0 01.326-.564l-.375-.65a1.402 1.402 0 00-.701 1.214h.75zm.326-.564l3.195-1.845-.375-.649-3.195 1.844.375.65zm-.326 4.254v-3.69h-.75v3.69h.75zm3.521 2.409l-3.195-1.845-.375.649 3.195 1.845.375-.649zm3.847-1.845l-3.195 1.845.375.649 3.195-1.845-.375-.649zm.326-4.254v3.69h.75v-3.69h-.75zm-3.521-2.409l3.195 1.845.375-.65-3.195-1.844-.375.649z" fill="#07ACFF"/></g><defs><filter id="filter0_d_4_902" x="99.779" y="98.128" width="313.766" height="313.766" filterUnits="userSpaceOnUse" color-interpolation-filters="sRGB"><feFlood flood-opacity="0" result="BackgroundImageFix"/><feColorMatrix in="SourceAlpha" values="0 0 0 0 0 0 0 0 0 0 0 0 0 0 0 0 0 0 127 0" result="hardAlpha"/><feOffset dy="4"/><feGaussianBlur stdDeviation="2"/><feComposite in2="hardAlpha" operator="out"/><feColorMatrix values="0 0 0 0 0 0 0 0 0 0 0 0 0 0 0 0 0 0 0.04 0"/><feBlend in2="BackgroundImageFix" result="effect1_dropShadow_4_902"/><feBlend in="SourceGraphic" in2="effect1_dropShadow_4_902" result="shape"/></filter><filter id="filter1_d_4_902" x="72.687" y="71.035" width="367.307" height="367.307" filterUnits="userSpaceOnUse" color-interpolation-filters="sRGB"><feFlood flood-opacity="0" result="BackgroundImageFix"/><feColorMatrix in="SourceAlpha" values="0 0 0 0 0 0 0 0 0 0 0 0 0 0 0 0 0 0 127 0" result="hardAlpha"/><feOffset dy="4"/><feGaussianBlur stdDeviation="2"/><feComposite in2="hardAlpha" operator="out"/><feColorMatrix values="0 0 0 0 0 0 0 0 0 0 0 0 0 0 0 0 0 0 0.04 0"/><feBlend in2="BackgroundImageFix" result="effect1_dropShadow_4_902"/><feBlend in="SourceGraphic" in2="effect1_dropShadow_4_902" result="shape"/></filter><filter id="filter2_d_4_902" x="35.242" y="36.344" width="436.965" height="436.965" filterUnits="userSpaceOnUse" color-interpolation-filters="sRGB"><feFlood flood-opacity="0" result="BackgroundImageFix"/><feColorMatrix in="SourceAlpha" values="0 0 0 0 0 0 0 0 0 0 0 0 0 0 0 0 0 0 127 0" result="hardAlpha"/><feOffset dy="4"/><feGaussianBlur stdDeviation="2"/><feComposite in2="hardAlpha" operator="out"/><feColorMatrix values="0 0 0 0 0 0 0 0 0 0 0 0 0 0 0 0 0 0 0.04 0"/><feBlend in2="BackgroundImageFix" result="effect1_dropShadow_4_902"/><feBlend in="SourceGraphic" in2="effect1_dropShadow_4_902" result="shape"/></filter><filter id="filter3_d_4_902" x="0" y="0" width="508" height="508" filterUnits="userSpaceOnUse" color-interpolation-filters="sRGB"><feFlood flood-opacity="0" result="BackgroundImageFix"/><feColorMatrix in="SourceAlpha" values="0 0 0 0 0 0 0 0 0 0 0 0 0 0 0 0 0 0 127 0" result="hardAlpha"/><feOffset dy="4"/><feGaussianBlur stdDeviation="2"/><feComposite in2="hardAlpha" operator="out"/><feColorMatrix values="0 0 0 0 0 0 0 0 0 0 0 0 0 0 0 0 0 0 0.04 0"/><feBlend in2="BackgroundImageFix" result="effect1_dropShadow_4_902"/><feBlend in="SourceGraphic" in2="effect1_dropShadow_4_902" result="shape"/></filter><filter id="filter4_d_4_902" x="132.679" y="131.027" width="247.323" height="247.323" filterUnits="userSpaceOnUse" color-interpolation-filters="sRGB"><feFlood flood-opacity="0" result="BackgroundImageFix"/><feColorMatrix in="SourceAlpha" values="0 0 0 0 0 0 0 0 0 0 0 0 0 0 0 0 0 0 127 0" result="hardAlpha"/><feOffset dy="4"/><feGaussianBlur stdDeviation="2"/><feComposite in2="hardAlpha" operator="out"/><feColorMatrix values="0 0 0 0 0 0 0 0 0 0 0 0 0 0 0 0 0 0 0.04 0"/><feBlend in2="BackgroundImageFix" result="effect1_dropShadow_4_902"/><feBlend in="SourceGraphic" in2="effect1_dropShadow_4_902" result="shape"/></filter><filter id="filter5_d_4_902" x="170.739" y="169.087" width="171.204" height="171.204" filterUnits="userSpaceOnUse" color-interpolation-filters="sRGB"><feFlood flood-opacity="0" result="BackgroundImageFix"/><feColorMatrix in="SourceAlpha" values="0 0 0 0 0 0 0 0 0 0 0 0 0 0 0 0 0 0 127 0" result="hardAlpha"/><feOffset dy="4"/><feGaussianBlur stdDeviation="2"/><feComposite in2="hardAlpha" operator="out"/><feColorMatrix values="0 0 0 0 0 0 0 0 0 0 0 0 0 0 0 0 0 0 0.04 0"/><feBlend in2="BackgroundImageFix" result="effect1_dropShadow_4_902"/><feBlend in="SourceGraphic" in2="effect1_dropShadow_4_902" result="shape"/></filter></defs></svg>