<svg width="24" height="24" fill="none" xmlns="http://www.w3.org/2000/svg"><g clip-path="url(#clip0_1_4590)"><path d="M18.077 3H5.922C3.686 3 2.27 5.41 3.394 7.36l7.502 13.003c.49.85 1.717.85 2.206 0L20.606 7.36C21.729 5.414 20.312 3 18.079 3h-.002zM10.89 16.464l-1.633-3.162L5.314 6.25a.689.689 0 01.606-1.03h4.969v11.244l.001-.001zm7.792-10.215l-3.941 7.054-1.634 3.16V5.22h4.969a.69.69 0 01.606 1.03z" fill="#05ACFF"/></g><defs><clipPath id="clip0_1_4590"><path fill="#fff" d="M0 0h24v24H0z"/></clipPath></defs></svg>