<svg width="64" height="64" fill="none" xmlns="http://www.w3.org/2000/svg"><g clip-path="url(#clip0_1_1995)" stroke="#05ACFF" stroke-width="2" stroke-linecap="round" stroke-linejoin="round"><path d="M16 13.333h32a5.333 5.333 0 015.333 5.334v32A5.333 5.333 0 0148 56H16a5.333 5.333 0 01-5.333-5.333v-32A5.334 5.334 0 0116 13.333z"/><path d="M24 42.667c2.667 1.778 5.333 2.666 8 2.666s5.333-.888 8-2.666m-16-24L21.333 8M40 18.667L42.667 8M24 32v-2.667M40 32v-2.667"/></g><defs><clipPath id="clip0_1_1995"><path fill="#fff" transform="rotate(-90 32 32)" d="M0 0h64v64H0z"/></clipPath></defs></svg>