<svg width="64" height="64" fill="none" xmlns="http://www.w3.org/2000/svg"><g clip-path="url(#clip0_1_1449)" stroke="#05ACFF" stroke-width="2.5" stroke-linecap="round" stroke-linejoin="round"><path d="M18.667 48V18.667A5.333 5.333 0 0124 13.333h1.333A1.333 1.333 0 0026.667 12 1.333 1.333 0 0128 10.667h8A1.333 1.333 0 0137.333 12a1.334 1.334 0 001.334 1.333H40a5.333 5.333 0 015.333 5.334V48A5.333 5.333 0 0140 53.333H24A5.333 5.333 0 0118.667 48zm8-2.667h10.666m-10.666-8h10.666m-10.666-8h10.666m-10.666-8h10.666"/></g><defs><clipPath id="clip0_1_1449"><path fill="#fff" transform="rotate(-90 32 32)" d="M0 0h64v64H0z"/></clipPath></defs></svg>